<?xml version="1.0" encoding="UTF-8" standalone="no"?>
<svg
   viewBox="0 0 40 40"
   width="40px"
   height="40px"
   version="1.1"
   id="svg6"
   sodipodi:docname="metapython40x40.svg"
   inkscape:version="1.2.1 (9c6d41e410, 2022-07-14)"
   xmlns:inkscape="http://www.inkscape.org/namespaces/inkscape"
   xmlns:sodipodi="http://sodipodi.sourceforge.net/DTD/sodipodi-0.dtd"
   xmlns="http://www.w3.org/2000/svg"
   xmlns:svg="http://www.w3.org/2000/svg">
  <defs
     id="defs10" />
  <sodipodi:namedview
     id="namedview8"
     pagecolor="#505050"
     bordercolor="#ffffff"
     borderopacity="1"
     inkscape:showpageshadow="0"
     inkscape:pageopacity="0"
     inkscape:pagecheckerboard="1"
     inkscape:deskcolor="#505050"
     showgrid="false"
     inkscape:zoom="11.902964"
     inkscape:cx="18.230753"
     inkscape:cy="12.601903"
     inkscape:window-width="1920"
     inkscape:window-height="990"
     inkscape:window-x="0"
     inkscape:window-y="35"
     inkscape:window-maximized="1"
     inkscape:current-layer="svg6" />
  <path
     fill="#0277bd"
     d="M 20.403324,4.1666667 C 19.107522,4.1708332 18.209209,4.285 17.123402,4.4725 13.916811,5.0308332 13.332658,6.2033332 13.332658,8.3641668 v 3.3025002 h 7.499823 v 1.666666 H 13.047664 9.4227507 c -2.1966142,0 -4.1190685,1.035 -4.7282207,3.515834 -0.688317,2.8475 -0.7191498,4.630833 0,7.604166 0.5458202,2.2175 1.7482917,3.879999 3.94574,3.879999 h 3.026594 V 24.08 c 0,-2.471667 2.23828,-4.913333 4.803219,-4.913333 h 6.029857 c 2.102451,0 4.166568,-1.551667 4.166568,-3.6475 V 8.3641667 c 0,-2.0325 -1.465798,-3.5525 -3.514917,-3.8933335 0.05083,-0.005 -1.463298,-0.3091665 -2.748267,-0.3041665 z M 16.250088,7.5 c 0.684152,0 1.249971,0.5641668 1.249971,1.2516668 C 17.500059,9.4458333 16.93424,10 16.250088,10 15.552606,10 15.000119,9.4466668 15.000119,8.7516668 15.000119,8.0666668 15.552606,7.5 16.250088,7.5 Z"
     id="path2"
     style="stroke-width:0.833322" />
  <path
     fill="#ffc107"
     d="m 19.595843,35.833332 c 1.295803,-0.0042 2.194114,-0.118325 3.279922,-0.305832 3.20659,-0.558333 3.790743,-1.730833 3.790743,-3.891667 v -3.3025 h -7.499822 v -1.666665 h 7.785649 3.624915 c 2.196612,0 4.119067,-1.035 4.72822,-3.515835 0.688318,-2.8475 0.71915,-4.630833 0,-7.604166 -0.546653,-2.2175 -1.749125,-3.88 -3.946573,-3.88 H 28.332302 V 15.92 c 0,2.471667 -2.23828,4.913333 -4.80322,4.913333 h -6.029856 c -2.102451,0 -4.166568,1.551667 -4.166568,3.6475 v 7.154999 c 0,2.0325 1.465799,3.5525 3.514916,3.893335 -0.05083,0.005 1.463299,0.309165 2.748269,0.304165 z M 23.749911,32.5 C 23.06576,32.5 22.49994,31.935832 22.49994,31.248332 22.49994,30.554167 23.06576,30 23.749911,30 c 0.697482,0 1.24997,0.553332 1.24997,1.248332 0,0.685001 -0.55332,1.251668 -1.24997,1.251668 z"
     id="path4"
     style="stroke-width:0.833322" />
  <path
     id="path326"
     style="fill:#d45500;stroke-width:0.861125"
     d="M 20,0 A 20,20 0 0 0 0,20 20,20 0 0 0 20,40 20,20 0 0 0 40,20 20,20 0 0 0 20,0 Z m 0,3.3333333 A 16.666667,16.666667 0 0 1 36.666668,20 16.666667,16.666667 0 0 1 20,36.666668 16.666667,16.666667 0 0 1 3.3333333,20 16.666667,16.666667 0 0 1 20,3.3333333 Z" />
</svg>
