<?xml version="1.0" encoding="UTF-8" standalone="no"?>
<svg width="16px" height="16px" version="1.1" id="metapython"
     xmlns="http://www.w3.org/2000/svg">
    <defs id="defs10"/>
    <path
            fill="#0277bd"
            d="M 8.1613298,1.6666666 C 7.6430087,1.6683329 7.2836837,1.714 6.8493607,1.789 5.5667242,2.0123334 5.333063,2.4813334 5.333063,3.3456665 v 1.321 H 8.3329923 V 5.3333332 H 5.2190658 3.7691003 c -0.8786455,0 -1.6476274,0.414 -1.8912883,1.4063333 -0.2753267,1.139 -0.2876599,1.8523335 0,3.0416668 0.2183281,0.8869997 0.6993168,1.5519997 1.578296,1.5519997 H 4.6667458 V 9.632 c 0,-0.9886667 0.8953119,-1.9653335 1.9212875,-1.9653335 H 8.999976 c 0.8409803,0 1.666627,-0.6206665 1.666627,-1.459 v -2.862 c 0,-0.8129997 -0.586319,-1.4209999 -1.4059667,-1.5573331 0.020333,-0.002 -0.585319,-0.1236668 -1.0993065,-0.1216668 z M 6.5000352,3 C 6.773696,3 7.0000237,3.2256667 7.0000237,3.5006668 7.0000237,3.7783335 6.773696,4 6.5000352,4 6.2210422,4 6.0000477,3.7786668 6.0000477,3.5006668 6.0000477,3.2266668 6.2210422,3 6.5000352,3 Z"
            id="path2"
            style="stroke-width:0.333329"/>
    <path
            fill="#ffc107"
            d="M 7.8383373,14.333334 C 8.3566583,14.331609 8.7159828,14.286 9.150306,14.211 c 1.282636,-0.223334 1.516297,-0.692334 1.516297,-1.556667 v -1.321 H 7.6666742 V 10.666667 H 10.780934 12.2309 c 0.878645,0 1.647628,-0.414 1.891288,-1.4063338 0.275327,-1.139 0.28766,-1.8523332 0,-3.0416667 -0.21866,-0.887 -0.69965,-1.552 -1.578629,-1.552 H 11.332921 V 6.368 c 0,0.9886668 -0.895312,1.9653335 -1.9212882,1.9653335 H 6.9996903 C 6.15871,8.3333335 5.333063,8.954 5.333063,9.7923333 v 2.8619997 c 0,0.813001 0.5863198,1.421001 1.4059668,1.557333 -0.020333,0.002 0.5853195,0.123668 1.0993075,0.121668 z M 9.4999643,13 C 9.226304,13 8.999976,12.774333 8.999976,12.499333 8.999976,12.221667 9.226304,12 9.4999643,12 c 0.278993,0 0.499988,0.221333 0.499988,0.499333 0,0.274 -0.221328,0.500667 -0.499988,0.500667 z"
            id="path4"
            style="stroke-width:0.333329"/>
    <path
            id="path326"
            style="fill:#d45500;stroke-width:0.34445"
            d="M 8,0 A 8,8 0 0 0 0,8 8,8 0 0 0 8,16 8,8 0 0 0 16,8 8,8 0 0 0 8,0 Z M 8,1.3333332 A 6.6666667,6.6666667 0 0 1 14.666668,8 6.6666667,6.6666667 0 0 1 8,14.666666 6.6666667,6.6666667 0 0 1 1.3333332,8 6.6666667,6.6666667 0 0 1 8,1.3333332 Z"/>
</svg>
